<?xml version="1.0" encoding="utf-8"?>
<!-- Generator: Adobe Illustrator 21.0.0, SVG Export Plug-In . SVG Version: 6.00 Build 0)  -->
<svg version="1.1" id="Layer_1" xmlns="http://www.w3.org/2000/svg" xmlns:xlink="http://www.w3.org/1999/xlink" x="0px" y="0px"
	 viewBox="0 0 726 907.7" style="enable-background:new 0 0 726 907.7;" xml:space="preserve">
<style type="text/css">
	.st0{fill:#1FFF2A;}
</style>
<path class="st0" d="M190,0c-7.4,0-14.3,1.2-20.4,3.6C119.6,23,75,52,37.1,89.9c-10.3,10.3-20.2,21.6-30.2,34.3l-6.5,8.2l-0.2,10.4
	C-3.2,284.3,60,431.1,175.9,547.9h-0.1l2.2,2.4C289.7,662,433.6,726.1,572.8,726.1l0,0l20.8-0.4l8.1-6.4
	c12.2-9.5,23.8-19.7,34.5-30.4c37.9-37.9,66.9-82.5,86.1-132.3c11-28.1-4.5-72.9-29.3-84c-55.5-25.2-98.9-39.1-171.7-55.4
	c-3.7-0.8-7.6-1.2-12.2-1.2c-4.3,0-42.7,0.7-57.9,24.4l-17.6,27.8l-19.1,26.7c-5.2,0-11.6-2.4-17.3-6.6
	c-29.1-21.2-58.1-45.9-85.8-73.1c-27.5-28-52.4-57.1-73.8-86.5c-7.2-9.8-6.9-18.5-7.4-18.9l55.3-35c23.2-14.6,27.5-54.7,23.1-71.3
	c-15.7-59.1-37.2-120.9-54.3-168.3C244.7,8.6,206.8,0,190,0z M190,62.5c2.4,0,5.8,0.8,8.5,1.8c16,44.9,35.5,101.4,49.3,152.6
	c0.1,1.9-0.5,5.7-1.3,8.6l-49.4,31.4c-14,8.7-23.6,23-27,40.4c-4.4,22.5,1.8,47.4,17.2,68.4c23.3,31.8,50.1,63.2,80.1,93.8
	c30.3,29.8,61.6,56.5,93.1,79.4c37.3,27.3,89.1,22.2,108.6-9.5l31.4-49.5c2.5-0.7,5.7-1.3,7.3-1.6c65.4,14.6,105.1,27.1,153.5,48.7
	c1.3,3.1,2.6,6.8,2.9,7.1c-16.2,41.8-40.4,79.1-72,110.7c-6.5,6.5-13.5,12.8-20.8,18.9C449.1,663.2,321.9,605.9,223,507l-3-3.1
	C121.4,405.3,63,275.5,62.5,154.8c6.2-7.5,12.4-14.3,18.8-20.7C113,102.4,150.3,78.1,190,62.5z"/>
</svg>
