<svg xmlns="http://www.w3.org/2000/svg" viewBox="0 0 498.03 232.01"><defs><style>.cls-1{stroke:#000;stroke-miterlimit:10;}</style></defs><title>3Asset 3</title><g id="Layer_2" data-name="Layer 2"><g id="Layer_1-2" data-name="Layer 1"><path class="cls-1" d="M114.64,70,93.75,73.37c.4,5.39,12.88-1.53,12.38,5.37-12,0-32.67-2.35-42.4,5.73S57,106.38,48.22,115.09c-7.69,7.61-22.73,4-29.34,12.51-7.23,9.32,1.16,34.88,4.45,44.6-8.9,5.15-10.61-25.44-10.78-30.9-.42-12.85-1.07-16.61,9.61-24.48,9.45-7,16.09-5.12,23.49-14.88,1.42-1.87,18.36-26.58,18.47-26-29.65,0-35.6-7.83-51-31.9C-3.16,18.48-8.51,10.93,26.92,12c52.67,1.64,106.5,11.67,158.76,18,25.79,3.13,313.77,33.56,311.84,44.44-84-9.17-167.94-19-251.94-28-39.9-4.27-79.92-8.16-119.77-13-35.5-4.29-74.06-13.41-109.75-8C27.88,47.37,32.84,64.77,58.56,67.43,66.09,68.2,113.84,64.59,114.64,70Z"/><path d="M488.56,137.54l-3.65.8c1.54,1.18,2.53,1.9,3.47,2.63,4.45,3.44,1.67,7.08.4,9.68-3.1,6.36-25,13.64-40.22,1.38a18.61,18.61,0,0,0-4.43-2.69c-2.11-.86-4.53-1.31-6.2-.16-8.26,5.7-17.92,6.25-27.48,5.34a39.9,39.9,0,0,1-14.56-4.24c-6.25-3.31-5.87-8.87.16-12.62.87-.54,1.76-1.07,2.6-1.65.21-.14.3-.47.79-1.3-3-.21-5.66-.61-8.33-.56-27.92.51-55.87.37-83.74,1.86-25.8,1.38-51.62,3.72-77.23,7.11-22.52,3-44.75,8.1-67.16,12-1.88.33-5-.7-5.94-2.14-1.2-1.77-.91-4.64-.95-7,0-.38,1.61-1,2.55-1.17,23.66-5.31,47.51-9.46,71.72-11.31C244.58,132.4,258.78,131,273,130c10.33-.71,20.7-1.27,31-1.39,22-.25,44.07-.53,66.1-.11,23.21.44,46.43,1.27,69.59,2.71,15.28,1,30.48,3.27,45.72,5a26.55,26.55,0,0,1,3,.68Zm-20.4,16.19c5-.05,10.34-1.75,14.61-3.58,1.61-.69,3.78-2.52,3.94-4,.15-1.35-1.82-3.63-3.38-4.31a36.23,36.23,0,0,0-10-2.77c-6.53-.8-13.2-1.19-19.18,2.25-1.59.91-3.25,3.26-3.22,4.92,0,1.42,2.19,3.43,3.79,4.07C458.93,151.95,463.68,153.78,468.16,153.73Zm-50.59-17.26c-5.8.38-10.84.92-14.36,3.7s-3.87,5.85.18,8a19.12,19.12,0,0,0,6.26,1.81c7.77,1.05,15.48.77,22.72-2.55a5.89,5.89,0,0,0,3-3.87c.13-.92-1.89-2.35-2.95-3.15C429.29,138,424.94,136.67,417.57,136.48Z"/><path d="M42.49,177.41c-10.4-24.16,16.72-23.53,30.6-18.07,15,5.91,47.6,29.94,63.94,21.85,14.8-7.33-3.93-34.06-9-50.11-5.17-16.23-19.4-53.4-12.48-52.13,7.72,25.84,25.58,57.59,35.09,87.06,6.32,19.59-4.86,20.72-23.87,20.34C102.54,185.86,44.45,145.88,42.49,177.41Z"/><path d="M148.21,93.62c100.32-7.82,202.77.42,303,6.57C451.18,101.37,148.42,99.6,148.21,93.62Z"/><path d="M47.86,198.28A26.94,26.94,0,0,1,56,177.19c7.47-7.38,16.71-7.19,25.8-4.06,10,3.46,15.29,11.82,17.12,21.6,2.6,13.85-3.25,27.6-16,34.66-9.3,5.14-19.21,2.33-25.72-4.9S47.59,208.83,47.86,198.28Zm7.3,1.73c1,3.78,1.3,7.87,3,11.29,6.2,12.53,19,15.5,28.37,4.8,5.18-5.89,5.61-12.77,4.84-19.85-1.16-10.67-13.79-19-23.65-16C60.11,182.61,55.91,189.56,55.16,200Z"/><path d="M109.16,111.76c-7.55.55-14.68,1.13-21.82,1.55-2.49.15-5.83.82-7.3-.46-1.65-1.44-1.66-4.8-2.33-7.34-1.14-4.37-2.23-8.75-3.66-14.37,8.92-.62,17.47-1.3,26-1.67.91,0,2.39,1.57,2.78,2.71C105,98.37,106.91,104.66,109.16,111.76Z"/><path d="M312.6,21.43C257.11,19.24,199.68,8.76,144.85.15,160.94-1.89,313.31,18.14,312.6,21.43Z"/><path d="M142.05,13.1c3.84-.35,7.72-1.21,11.52-.94,13.47,1,26.92,2.2,40.36,3.53,14.3,1.42,28.58,3,42.86,4.63a66.66,66.66,0,0,1,6.57,1.39L243,23.62,142.1,14.38Z"/><path d="M389.67,79c24.46-.71,48.66,2.42,72.83,6.18l-72.92-4.86Z"/><path d="M74.53,114,69,115.12c-2.67-6.61-3.92-13,1-20.38Z"/><path d="M95.85,117.66l12-1.41c-.41,4.14-3,5.76-6.16,5.52C99.47,121.62,95.71,122.3,95.85,117.66Z"/><path d="M468.85,143.12c-4.82,1.36-2.58,4.57-2.06,7.24-2.89-1.6-3.84-2.24-3.74-4.71C463.13,143.36,465.43,141.72,468.85,143.12Z"/><path d="M417.34,149.34c-1.85-1.85-3.9-3-4.14-4.41s1.39-3.1,2.63-5.51C415.48,144.72,416.14,146.53,417.34,149.34Z"/><path d="M72.54,205.81c-1.56-1.64-3.49-2.78-4-4.35-.77-2.65-.58-5.55,2.41-6.67Z"/></g></g></svg>